<?xml version="1.0" encoding="utf-8"?>
<!-- Generator: Adobe Illustrator 27.9.0, SVG Export Plug-In . SVG Version: 6.00 Build 0)  -->
<svg version="1.1" id="Layer_1" xmlns="http://www.w3.org/2000/svg" xmlns:xlink="http://www.w3.org/1999/xlink" x="0px" y="0px"
	 viewBox="0 0 1978.2 504.8" style="enable-background:new 0 0 1978.2 504.8;" xml:space="preserve">
<style type="text/css">
	.st0{fill:none;stroke:#CFAC65;stroke-miterlimit:10;}
	.st1{fill:#CEAB65;}
	.st2{fill:none;stroke:#CFAC65;stroke-width:1.7;stroke-miterlimit:10;}
	.st3{fill:#FFFFFF;}
</style>
<g>
	<rect x="12.4" y="143.1" class="st0" width="222.3" height="208.6"/>
	<path class="st1" d="M160.5,187.7v4.3l2,3.8l39.2,50.4l14.3,8.9l-3.6,2.9l-12.9-4l-3.2,25.9l11.3,7.4l-10.2,10.8l2.6,15.3l-9,5.5
		l2.4,11l-8-12.8l1.9-9.7l-3-4.5l-9.1-4.9l-5.7-0.1l9.2,7l0.2,8.5l-8.6-0.9l-14.2-6.6l6.3-14.6l-0.7-5.8l-33-26.5l0.1,0.5l-22.5-9.4
		l-3.8-17.6l-4.5-1.2l-21.3-15.8l-3.2,0.2l22.4,18.4L84,252.6l-14.1-14.4l-22.4-8.9l-2.2-20.5l1.1-5.5l9.2-6.1l-8.8-11.9l-4.4-1.7
		l0.1-3.1l8.6-0.4l2.8-11.3l30.7,9.7l25.5,0.7l29.9,9.5l18.2-5.4L160.5,187.7L160.5,187.7z"/>
</g>
<line class="st2" x1="1394.3" y1="143.7" x2="1394.3" y2="355.5"/>
<g>
	<path class="st3" d="M1474.9,215.1c0,7.5,5.3,12,12.7,12c5.6,0,9.8-3.3,10.9-8.6h-11.4v-5h17.3c0.3,13-7.3,19.3-17.5,19.3
		s-17.9-7.4-17.9-17.7c0-11.1,7.8-17.3,18.1-17.3c6.8,0,14.4,2.6,16.3,10.9l-5,1.8c-1.7-5.3-6.8-7.2-11.4-7.2
		C1479.7,203.3,1475,207.7,1474.9,215.1L1474.9,215.1z"/>
	<path class="st3" d="M1514.4,215.4c0-10.9,6.9-17.8,17.4-17.8s17.6,7,17.6,17.4c0,10.4-7,17.8-17.4,17.8S1514.4,225.8,1514.4,215.4
		z M1531.7,203c-7.1,0-11.6,4.5-11.6,11.9c0,7.4,4.5,12.6,11.7,12.6s11.7-4.5,11.7-11.9C1543.5,208.2,1538.9,203,1531.7,203
		L1531.7,203z"/>
	<path class="st3" d="M1578,198.8c8.5,0,14.8,1.2,14.8,8.6c0,2.8-1.4,4.7-3.3,6.4c2.5,1.7,3.9,4.1,3.9,7c0,8.3-6.7,10.9-13.2,10.9
		H1562v-32.9C1564.9,198.9,1572.6,198.8,1578,198.8L1578,198.8z M1581.9,211.9c3.1,0,4.7-2.3,4.7-4c0-1.9-1.7-3.6-5.4-3.6
		c-2.6,0-6.1,0.1-13.4,0.1v7.5H1581.9z M1567.7,226.4c1.7,0,10.2,0.1,12.9,0.1c3.5,0,6.7-1.7,6.7-5.2c0-2.9-3.1-4-6.5-4h-13.1V226.4
		L1567.7,226.4z"/>
	<path class="st3" d="M1606.8,231.7v-32.9h5.6v32.9C1612.4,231.7,1606.8,231.7,1606.8,231.7z"/>
	<path class="st3" d="M1658.4,231.7h-30.7v-32.9h29.8v5.5h-24.2v7.6h20.2v5.6h-20.2v8.6h25.2
		C1658.4,226.3,1658.4,231.7,1658.4,231.7z"/>
	<path class="st3" d="M1688.8,218.4h-12.9v13.3h-5.6v-32.9h20.5c7.9,0,12.5,3.8,12.5,9.6c0,5-3.6,8.5-8.3,9.2
		c1.6,5.9,2.7,9.3,5.5,9.3c0.9,0,1.9-0.3,2.8-0.7v5.4c-1.9,0.6-3.6,0.9-5,0.9C1692.8,232.6,1691.8,225.7,1688.8,218.4L1688.8,218.4z
		 M1690.4,213.5c2.4,0,6-1.7,6-4.8c0-2.8-2.1-4.4-6.5-4.4c-4.1,0-8.2,0-14,0.1v9.1C1675.9,213.5,1690.4,213.5,1690.4,213.5z"/>
	<path class="st3" d="M1749,231.7h-5.7l-21.5-24.2v24.2h-5.6v-32.9h5.6l21.5,24.4v-24.4h5.6C1749,198.8,1749,231.7,1749,231.7z"/>
	<path class="st3" d="M1761.8,215.4c0-10.9,6.9-17.8,17.4-17.8s17.6,7,17.6,17.4c0,10.4-7,17.8-17.4,17.8
		C1768.8,232.8,1761.8,225.8,1761.8,215.4z M1779.1,203c-7.1,0-11.6,4.5-11.6,11.9c0,7.4,4.5,12.6,11.7,12.6s11.7-4.5,11.7-11.9
		C1790.9,208.2,1786.3,203,1779.1,203L1779.1,203z"/>
	<path class="st3" d="M1504.2,271.2c0,10-6.5,17.4-16.5,17.4h-16.3v-32.9h16.3C1497.6,255.7,1504.2,262,1504.2,271.2L1504.2,271.2z
		 M1485.9,283.3c7.7,0,12.2-4.9,12.2-12c0-6.4-4.6-10.3-12.1-10.3h-8.9v22.2L1485.9,283.3L1485.9,283.3z"/>
	<path class="st3" d="M1547.7,288.6H1517v-32.9h29.8v5.5h-24.2v7.6h20.2v5.6h-20.2v8.6h25.2v5.6H1547.7L1547.7,288.6z"/>
	<path class="st3" d="M1593.9,260.3c-6.9,0-12.2,4-12.2,11.6s5.4,12.1,12.7,12.1c5.3,0,10.2-3.1,11.1-8.6c1.6,0.7,3.1,1.4,4.7,2
		c-1,9.1-9.2,12.3-16.6,12.3c-10.5,0-18-7.5-18-17.8c0-10.3,7.7-17.1,18.3-17.1c7.8,0,14.8,3.5,16.4,11.1l-5,1.9
		C1603.8,262.6,1598.5,260.2,1593.9,260.3L1593.9,260.3z"/>
	<path class="st3" d="M1620.1,272.3c0-10.9,6.9-17.8,17.4-17.8s17.6,7,17.6,17.4s-7,17.8-17.4,17.8
		C1627.1,289.7,1620.1,282.7,1620.1,272.3z M1637.4,259.9c-7.1,0-11.6,4.5-11.6,11.9s4.5,12.6,11.7,12.6s11.7-4.5,11.7-11.9
		S1644.6,259.9,1637.4,259.9L1637.4,259.9z"/>
	<path class="st3" d="M1698.8,278.2c0,9-9.1,11.6-16.4,11.6c-5.5,0-15.2-0.8-17.1-9.7l4.9-2.4c2.1,5.5,7.3,6.2,11.6,6.2
		c3.9,0,10.9-0.8,10.9-5.3c0-8.5-27.2,0.9-27.2-13.3c0-7.7,9.1-10.7,16.3-10.7s15.1,2.4,16.2,9.8l-4.6,1.8
		c-1.4-4.9-6.7-6.5-11.6-6.5c-4.6,0-9.8,1.8-9.8,5C1672,272.6,1698.7,264.3,1698.8,278.2L1698.8,278.2z"/>
	<path class="st3" d="M1741.7,261.3h-14.6v27.3h-5.6v-27.3h-14.6v-5.5h34.8L1741.7,261.3L1741.7,261.3z"/>
	<path class="st3" d="M1772.9,279.2h-17.7c-1.3,2.8-2.9,6-4.5,9.4h-6.2l16-32.9h7.2l16,32.9h-6.2L1772.9,279.2z M1757.8,273.7h12.5
		l-5.8-12h-0.9L1757.8,273.7z"/>
	<path class="st3" d="M1831.4,275.3h-12.9v13.3h-5.6v-32.9h20.5c7.9,0,12.5,3.8,12.5,9.6c0,5-3.6,8.5-8.3,9.2
		c1.6,5.9,2.7,9.3,5.5,9.3c0.9,0,1.9-0.3,2.8-0.7v5.4c-1.9,0.6-3.6,0.9-5,0.9C1835.3,289.5,1834.3,282.6,1831.4,275.3L1831.4,275.3z
		 M1833,270.4c2.4,0,6-1.7,6-4.8c0-2.8-2.1-4.4-6.5-4.4c-4.1,0-8.2,0-14,0.1v9.1H1833L1833,270.4z"/>
	<path class="st3" d="M1858.8,288.6v-32.9h5.6v32.9H1858.8z"/>
	<path class="st3" d="M1895.3,260.3c-6.9,0-12.2,4-12.2,11.6s5.4,12.1,12.7,12.1c5.3,0,10.2-3.1,11.1-8.6c1.6,0.7,3.1,1.4,4.7,2
		c-1,9.1-9.2,12.3-16.6,12.3c-10.5,0-18-7.5-18-17.8c0-10.3,7.7-17.1,18.3-17.1c7.8,0,14.8,3.5,16.4,11.1l-5,1.9
		C1905.2,262.6,1899.8,260.2,1895.3,260.3L1895.3,260.3z"/>
	<path class="st3" d="M1947.8,279.2h-17.7c-1.3,2.8-2.9,6-4.5,9.4h-6.2l16-32.9h7.2l16,32.9h-6.2L1947.8,279.2z M1932.6,273.7h12.5
		l-5.8-12h-0.9L1932.6,273.7z"/>
</g>
<g>
	<path class="st3" d="M328.7,183.3l11.7-24.9h11.1v40.5h-8.7v-25.1l-12.2,25.1h-4l-12.2-25.1v25.1h-8.6v-40.5h11.1L328.7,183.3
		L328.7,183.3z"/>
	<path class="st3" d="M369.1,198.9v-40.5h8.8v40.5H369.1z"/>
	<path class="st3" d="M435.8,198.9H427L404.2,172v26.9h-8.8v-40.5h8.8l22.8,27.1v-27.1h8.8V198.9z"/>
	<path class="st3" d="M453.4,198.9v-40.5h8.8v40.5H453.4z"/>
	<path class="st3" d="M518.1,185.9c0,11.3-11.2,14.5-20.2,14.5c-5,0-18.3,0-21.1-11.8l7.8-4.2c3.4,6.5,8.5,6.8,12.3,6.8
		s11.5-0.3,11.5-4.6c0-8.7-31.4,1.9-31.4-16.4c0-8.8,10.2-13.3,20.3-13.3c9.5,0,18.9,4,19.8,12.2l-7.2,2.8
		c-1.5-5.1-7.2-7.1-12.5-7.1s-10.1,1.9-10.1,4.6C487.3,177.9,518,168.5,518.1,185.9L518.1,185.9z"/>
	<path class="st3" d="M570.4,167.1h-17v31.8h-8.8v-31.8h-17v-8.6h42.8V167.1L570.4,167.1z"/>
	<path class="st3" d="M621.6,198.9h-38.5v-40.5h37.4v8.6h-28.6v6.5h23.5v8.9h-23.5v7.8h29.7L621.6,198.9L621.6,198.9z"/>
	<path class="st3" d="M644.7,182.6v16.3h-8.8v-40.5c25.5,0,25.9-0.1,26.4-0.1c9.2,0,15,5.1,15,12.1c0,5.7-3.3,9.9-8.6,11l2.2,7.1
		c0.5,1.9,2,2.6,3.4,2.6c1.1,0,2.1-0.4,2.8-0.8v8.6c-2.4,0.8-4.6,1.2-6.4,1.2c-4.9,0-7.6-2.7-8.8-7.1l-2.8-10.4
		C659.1,182.6,644.7,182.6,644.7,182.6z M660.9,175c3.6,0,5.5-1.8,5.5-4.1s-1.8-3.8-5.2-3.8l-16.5,0.1v7.8H660.9L660.9,175z"/>
	<path class="st3" d="M692.5,198.9v-40.5h8.8v40.5H692.5z"/>
	<path class="st3" d="M715.9,178.8c0-13.4,8.5-21.9,21.4-21.9s21.7,8.6,21.7,21.5c0,12.9-8.6,21.9-21.5,21.9
		S715.9,191.6,715.9,178.8z M737.4,165.3c-7.5,0-12.2,4.7-12.2,12.7c0,8.5,4.6,13.9,12.4,13.9c7.7,0,12.4-4.7,12.4-12.7
		C749.8,170.8,745.1,165.3,737.4,165.3L737.4,165.3z"/>
	<path class="st3" d="M837,177.5c0,12.3-8,21.4-20.3,21.4h-20v-40.5h20.1C828.8,158.4,837,166.1,837,177.5L837,177.5z M813.8,190.7
		c8.6,0,13.6-5.2,13.6-13c0-7.1-5-10.8-13.6-10.8h-8.5v23.7L813.8,190.7L813.8,190.7z"/>
	<path class="st3" d="M890,198.9h-38.5v-40.5h37.4v8.6h-28.6v6.5h23.5v8.9h-23.5v7.8H890V198.9L890,198.9z"/>
	<path class="st3" d="M946.6,165.8c-7.1,0-13,4.2-13,12.4s6,13,13.9,13c6,0,10.8-3.8,11.9-9.4l7.3,3.3
		c-1.2,11.3-11.3,15.2-20.4,15.2c-13,0-22.2-9.3-22.2-22c0-12.7,9-21.1,22.6-21.1c10.7,0,18.1,5,20.2,13.7l-8,3
		C957.1,168.2,951.2,165.8,946.6,165.8L946.6,165.8z"/>
	<path class="st3" d="M980.8,198.9v-40.5h8.8v40.5H980.8z"/>
	<path class="st3" d="M1045.6,198.9h-38.5v-40.5h37.4v8.6h-28.6v6.5h23.5v8.9h-23.5v7.8h29.7V198.9L1045.6,198.9z"/>
	<path class="st3" d="M1100.3,198.9h-8.8l-22.8-26.9v26.9h-8.8v-40.5h8.8l22.8,27.1v-27.1h8.8V198.9z"/>
	<path class="st3" d="M1137.2,165.8c-7.1,0-13,4.2-13,12.4s6,13,13.9,13c6,0,10.8-3.8,11.9-9.4l7.3,3.3
		c-1.2,11.3-11.3,15.2-20.4,15.2c-13,0-22.2-9.3-22.2-22c0-12.7,9-21.1,22.6-21.1c10.7,0,18.1,5,20.2,13.7l-8,3
		C1147.8,168.2,1141.8,165.8,1137.2,165.8L1137.2,165.8z"/>
	<path class="st3" d="M1171.4,198.9v-40.5h8.8v40.5H1171.4z"/>
	<path class="st3" d="M1228.2,189.1H1207c-1.4,3-2.9,6.3-4.6,9.7h-10l19.7-40.5h10.9l19.7,40.5h-10L1228.2,189.1z M1211.1,180.6
		h13.1l-5.8-12.2h-1.5C1216.5,169.1,1214.4,173.6,1211.1,180.6L1211.1,180.6z"/>
	<path class="st3" d="M1258.1,207.8l-3.6-2.4c0,0,2.5-2.4,3.6-5.4c-4.1-0.1-6.9-2.9-6.9-6.9c0-4.3,2.8-7.1,6.9-7.1
		c4.5,0,7.2,3.6,7.2,7.7C1265.3,196.9,1263.8,201.6,1258.1,207.8L1258.1,207.8z"/>
	<path class="st3" d="M305.8,268.3v-40.5h8.8v40.5H305.8z"/>
	<path class="st3" d="M372.5,268.3h-8.7L341,241.4v26.9h-8.8v-40.5h8.8l22.8,27.1v-27.1h8.8L372.5,268.3L372.5,268.3z"/>
	<path class="st3" d="M430.5,268.3h-8.8l-22.8-26.9v26.9h-8.8v-40.5h8.8l22.8,27.1v-27.1h8.8V268.3z"/>
	<path class="st3" d="M445.2,248.2c0-13.4,8.5-21.9,21.4-21.9s21.7,8.6,21.7,21.5c0,12.8-8.6,21.9-21.5,21.9S445.2,261,445.2,248.2
		L445.2,248.2z M466.6,234.7c-7.5,0-12.2,4.7-12.2,12.7c0,8.5,4.6,13.9,12.4,13.9s12.4-4.7,12.4-12.7
		C479.1,240.2,474.3,234.7,466.6,234.7z"/>
	<path class="st3" d="M537.7,227.8h9.9l-20.2,40.5h-9.7l-20.2-40.5h9.9c7.7,16.2,13.3,27.6,14.7,30.5h0.9
		C524.4,255.4,529.9,244,537.7,227.8L537.7,227.8z"/>
	<path class="st3" d="M586.5,258.5h-21.2c-1.4,3-2.9,6.3-4.6,9.7h-10l19.7-40.5h10.9l19.7,40.5h-10L586.5,258.5z M569.4,250h13.1
		l-5.8-12.2h-1.5C574.8,238.4,572.7,243,569.4,250L569.4,250z"/>
	<path class="st3" d="M630.8,235.2c-7.1,0-13,4.2-13,12.4c0,8.2,6,13,13.9,13c6,0,10.8-3.8,11.9-9.4l7.3,3.3
		c-1.2,11.3-11.3,15.2-20.4,15.2c-13,0-22.2-9.3-22.2-22s9-21.1,22.6-21.1c10.7,0,18.1,5,20.2,13.7l-8,3
		C641.3,237.6,635.4,235.2,630.8,235.2L630.8,235.2z"/>
	<path class="st3" d="M665,268.3v-40.5h8.8v40.5H665z"/>
	<path class="st3" d="M710,269.7c-13,0-21.6-8.6-21.6-21.5c0-12.8,8.5-21.9,21.4-21.9s21.7,8.6,21.7,21.5S722.9,269.7,710,269.7z
		 M722.3,248.6c0-8.5-4.7-13.9-12.5-13.9c-7.7,0-12.2,4.7-12.2,12.7c0,8.5,4.6,13.9,12.4,13.9C717.7,261.3,722.3,256.6,722.3,248.6
		L722.3,248.6z M707.8,213.6l-1.2,10.2h5.2l6.5-10.2H707.8L707.8,213.6z"/>
	<path class="st3" d="M786.5,268.3h-8.7L755,241.4v26.9h-8.8v-40.5h8.8l22.8,27.1v-27.1h8.8L786.5,268.3L786.5,268.3z"/>
	<path class="st3" d="M807.2,277.2l-3.6-2.4c0,0,2.5-2.4,3.6-5.4c-4.1-0.1-6.9-2.9-6.9-6.9c0-4.3,2.8-7.1,6.9-7.1
		c4.5,0,7.2,3.6,7.2,7.7C814.4,266.3,812.9,271,807.2,277.2L807.2,277.2z"/>
	<path class="st3" d="M889.5,236.4h-17v31.8h-8.8v-31.8h-17v-8.6h42.8V236.4L889.5,236.4z"/>
	<path class="st3" d="M940.7,268.3h-38.5v-40.5h37.4v8.6H911v6.5h23.5v8.9H911v7.8h29.7V268.3L940.7,268.3z"/>
	<path class="st3" d="M974.4,235.2c-7.1,0-13,4.2-13,12.4c0,8.2,6,13,13.9,13c6,0,10.8-3.8,11.9-9.4l7.3,3.3
		c-1.2,11.3-11.3,15.2-20.4,15.2c-13,0-22.2-9.3-22.2-22s9-21.1,22.6-21.1c10.7,0,18.1,5,20.2,13.7l-8,3
		C984.9,237.6,978.9,235.2,974.4,235.2L974.4,235.2z"/>
	<path class="st3" d="M1048.9,268.3h-8.8l-22.8-26.9v26.9h-8.8v-40.5h8.8l22.8,27.1v-27.1h8.8V268.3L1048.9,268.3z"/>
	<path class="st3" d="M1063.6,248.2c0-13.4,8.5-21.9,21.4-21.9s21.7,8.6,21.7,21.5c0,12.8-8.6,21.9-21.5,21.9
		S1063.6,261,1063.6,248.2z M1085,234.7c-7.5,0-12.2,4.7-12.2,12.7c0,8.5,4.6,13.9,12.4,13.9c7.7,0,12.4-4.7,12.4-12.7
		C1097.5,240.2,1092.8,234.7,1085,234.7z"/>
	<path class="st3" d="M1157.4,268.3h-36v-40.5h8.8v31.9h27.3L1157.4,268.3L1157.4,268.3z"/>
	<path class="st3" d="M1166.1,248.2c0-13.4,8.5-21.9,21.4-21.9s21.7,8.6,21.7,21.5c0,12.8-8.6,21.9-21.5,21.9
		S1166.1,261,1166.1,248.2z M1187.5,234.7c-7.5,0-12.2,4.7-12.2,12.7c0,8.5,4.6,13.9,12.4,13.9s12.4-4.7,12.4-12.7
		C1200,240.2,1195.2,234.7,1187.5,234.7z"/>
	<path class="st3" d="M1230.2,247.6c0,8.4,6,13,13.9,13c5.5,0,10-2.7,11.6-7.7h-12.5v-7.8h21.7c1.1,14.5-7.4,24.5-22,24.5
		c-13,0-22.2-9.3-22.2-22c0-13.7,9.9-21.1,22.6-21.1c8.2,0,17.2,2.7,20,13.2l-8,2.9c-2.3-6.1-7.7-7.4-12.2-7.4
		C1235.3,235.2,1230.2,239.8,1230.2,247.6L1230.2,247.6z"/>
	<path class="st3" d="M1279.3,268.3v-40.5h8.8v40.5H1279.3z M1292.1,213.6l-6.5,10.2h-5.2l1.2-10.2H1292.1L1292.1,213.6z"/>
	<path class="st3" d="M1336.6,258.5h-21.2c-1.4,3-2.9,6.3-4.6,9.7h-10l19.7-40.5h10.9l19.7,40.5h-10L1336.6,258.5z M1319.5,250h13.1
		l-5.8-12.2h-1.5C1325,238.4,1322.8,243,1319.5,250L1319.5,250z"/>
	<path class="st3" d="M300.1,297.2h11l14.2,18.4l14.2-18.4h11l-20.8,26.9v13.6h-8.8v-13.6L300.1,297.2L300.1,297.2z"/>
	<path class="st3" d="M423.3,305.8h-17v31.8h-8.8v-31.8h-17v-8.6h42.8V305.8z"/>
	<path class="st3" d="M474.5,337.7H436v-40.5h37.4v8.6h-28.6v6.5h23.5v8.9h-23.5v7.8h29.7V337.7L474.5,337.7z"/>
	<path class="st3" d="M524.9,337.7h-36v-40.5h8.8v31.9H525L524.9,337.7L524.9,337.7z"/>
	<path class="st3" d="M576.2,337.7h-38.5v-40.5h37.4v8.6h-28.6v6.5H570v8.9h-23.5v7.8h29.7V337.7L576.2,337.7z"/>
	<path class="st3" d="M609.9,304.6c-7.1,0-13,4.2-13,12.4c0,8.2,6,13,13.9,13c6,0,10.8-3.8,11.9-9.4l7.3,3.3
		c-1.2,11.3-11.3,15.2-20.4,15.2c-13,0-22.2-9.3-22.2-22c0-12.7,9-21.1,22.6-21.1c10.7,0,18.1,5,20.2,13.7l-8,3
		C620.4,306.9,614.4,304.6,609.9,304.6L609.9,304.6z"/>
	<path class="st3" d="M641.1,317.6c0-13.4,8.5-21.9,21.4-21.9s21.7,8.6,21.7,21.5c0,12.8-8.6,21.9-21.5,21.9
		C649.8,339,641.1,330.4,641.1,317.6z M662.5,304c-7.5,0-12.2,4.7-12.2,12.7c0,8.5,4.6,13.9,12.4,13.9c7.7,0,12.4-4.7,12.4-12.7
		C675,309.5,670.3,304,662.5,304L662.5,304z"/>
	<path class="st3" d="M721.8,322.1l11.7-24.9h11.1v40.5h-8.8v-25.1l-12.2,25.1h-4l-12.2-25.1v25.1h-8.6v-40.5h11.1L721.8,322.1
		L721.8,322.1z"/>
	<path class="st3" d="M761.1,322.7v-25.5h8.8v23.4c0,6.5,3.2,9.7,10.9,9.7s10.9-3.2,10.9-9.7v-23.4h8.8v25.5
		c0,9.8-7.4,16.4-19.7,16.4S761.2,332.5,761.1,322.7L761.1,322.7z"/>
	<path class="st3" d="M857.4,337.7h-8.8l-22.8-27v26.9H817v-40.5h8.8l22.8,27.1v-27.1h8.8L857.4,337.7L857.4,337.7z"/>
	<path class="st3" d="M875,337.7v-40.5h8.8v40.5H875z"/>
	<path class="st3" d="M920.6,304.6c-7.1,0-13,4.2-13,12.4c0,8.2,6,13,13.9,13c6,0,10.8-3.8,11.9-9.4l7.3,3.3
		c-1.2,11.3-11.3,15.2-20.4,15.2c-13,0-22.2-9.3-22.2-22c0-12.7,9-21.1,22.6-21.1c10.7,0,18.1,5,20.2,13.7l-8,3
		C931.1,306.9,925.2,304.6,920.6,304.6L920.6,304.6z"/>
	<path class="st3" d="M985.2,327.9H964c-1.4,3-2.9,6.3-4.6,9.7h-10l19.7-40.5H980l19.7,40.5h-10L985.2,327.9z M968.1,319.4h13.1
		l-5.8-12.2h-1.5C973.5,307.8,971.4,312.4,968.1,319.4L968.1,319.4z"/>
	<path class="st3" d="M1029.5,304.6c-7.1,0-13,4.2-13,12.4c0,8.2,6,13,13.9,13c6,0,10.8-3.8,11.9-9.4l7.3,3.3
		c-1.2,11.3-11.3,15.2-20.4,15.2c-13,0-22.2-9.3-22.2-22c0-12.7,9-21.1,22.6-21.1c10.7,0,18.1,5,20.2,13.7l-8,3
		C1040,306.9,1034.1,304.6,1029.5,304.6L1029.5,304.6z"/>
	<path class="st3" d="M1063.7,337.7v-40.5h8.8v40.5H1063.7z"/>
	<path class="st3" d="M1087.2,317.6c0-13.4,8.5-21.9,21.4-21.9s21.7,8.6,21.7,21.5c0,12.8-8.6,21.9-21.5,21.9
		C1095.9,339,1087.2,330.4,1087.2,317.6z M1108.6,304c-7.5,0-12.2,4.7-12.2,12.7c0,8.5,4.6,13.9,12.4,13.9c7.7,0,12.4-4.7,12.4-12.7
		C1121.1,309.5,1116.3,304,1108.6,304z"/>
	<path class="st3" d="M1185.3,337.7h-8.8l-22.8-26.9v26.9h-8.8v-40.5h8.8l22.8,27.1v-27.1h8.8V337.7z"/>
	<path class="st3" d="M1241.3,337.7h-38.5v-40.5h37.4v8.6h-28.6v6.5h23.5v8.9h-23.5v7.8h29.7V337.7L1241.3,337.7z"/>
	<path class="st3" d="M1294,324.7c0,11.3-11.2,14.5-20.2,14.5c-5,0-18.3,0-21.1-11.8l7.8-4.2c3.4,6.5,8.5,6.8,12.3,6.8
		s11.5-0.3,11.5-4.6c0-8.7-31.4,1.9-31.4-16.4c0-8.8,10.2-13.3,20.3-13.3c9.5,0,18.9,4,19.8,12.2l-7.2,2.8
		c-1.5-5.1-7.2-7.1-12.5-7.1s-10.1,1.9-10.1,4.6C1263.2,316.7,1293.9,307.2,1294,324.7L1294,324.7z"/>
</g>
</svg>
